<?xml version="1.0" standalone="no"?>
<!DOCTYPE svg PUBLIC "-//W3C//DTD SVG 20010904//EN"
 "http://www.w3.org/TR/2001/REC-SVG-20010904/DTD/svg10.dtd">
<svg version="1.0" xmlns="http://www.w3.org/2000/svg"
 width="700.000000pt" height="700.000000pt" viewBox="0 0 700.000000 700.000000"
 preserveAspectRatio="xMidYMid meet">
<metadata>
Created by potrace 1.11, written by Peter Selinger 2001-2013
</metadata>
<g transform="translate(0.000000,700.000000) scale(0.100000,-0.100000)"
fill="#000000" stroke="none">
<path d="M4685 5569 c-16 -5 -42 -22 -56 -39 l-26 -31 -1 -422 c0 -292 3 -433
11 -457 24 -70 125 -90 178 -34 l24 26 3 431 c1 238 0 441 -3 452 -14 52 -78
88 -130 74z"/>
<path d="M3166 4849 c-63 -18 -97 -85 -72 -143 8 -17 151 -167 318 -333 288
-287 306 -303 340 -303 74 0 118 44 118 116 0 36 -13 51 -302 342 -167 167
-311 308 -321 313 -27 15 -49 17 -81 8z"/>
<path d="M6185 4846 c-43 -24 -624 -613 -630 -639 -17 -66 36 -137 102 -137
21 0 45 5 53 10 8 5 151 145 317 311 328 327 331 332 298 402 -24 51 -96 78
-140 53z"/>
<path d="M2507 4284 c-1 -1 -32 -5 -69 -8 -69 -7 -98 -12 -126 -20 -9 -3 -31
-8 -48 -11 -120 -20 -363 -130 -495 -225 -204 -144 -382 -362 -473 -577 -21
-48 -44 -103 -52 -121 -8 -18 -14 -41 -14 -51 0 -29 -7 -30 -83 -9 -83 22
-263 30 -359 15 -76 -11 -192 -49 -271 -88 -271 -134 -465 -403 -508 -704 -14
-102 -5 -257 21 -360 92 -365 413 -646 790 -692 64 -8 3244 -8 3310 0 277 33
506 201 622 458 32 71 65 204 68 274 0 6 36 16 81 23 362 57 687 338 813 702
81 236 69 525 -32 755 -164 376 -529 628 -927 639 -122 4 -278 -14 -320 -37
-11 -6 -20 -9 -20 -7 0 7 -111 -33 -160 -58 -195 -97 -362 -253 -465 -435 -18
-32 -34 -57 -35 -55 -1 2 -24 30 -51 63 -228 284 -581 478 -949 521 -54 6
-243 12 -248 8z m243 -228 c318 -41 609 -209 807 -466 149 -194 231 -414 249
-669 6 -94 20 -130 57 -150 26 -14 30 -14 162 -9 420 18 701 -425 513 -808
-75 -155 -249 -282 -412 -301 -28 -4 -778 -6 -1666 -7 -1541 0 -1618 1 -1690
19 -270 67 -474 273 -534 540 -15 69 -16 244 -2 308 37 159 156 335 289 426
61 41 176 94 242 111 131 33 312 17 446 -39 124 -52 183 -22 205 106 11 65 61
203 104 288 208 409 637 668 1090 659 52 -1 115 -4 140 -8z m2155 -10 c280
-74 511 -282 596 -537 55 -164 62 -300 25 -484 -35 -172 -178 -376 -339 -487
-102 -70 -254 -130 -355 -140 -33 -3 -33 -3 -66 82 -109 290 -376 485 -688
503 -26 1 -49 5 -52 8 -3 2 -8 27 -11 54 -14 103 -57 259 -100 358 -15 36 -15
42 1 90 94 289 371 524 662 563 26 3 48 8 50 9 10 9 226 -6 277 -19z"/>
<path d="M6090 3380 c-51 -6 -68 -15 -90 -44 -41 -56 -21 -134 40 -160 43 -18
875 -16 907 2 75 42 60 177 -21 198 -30 7 -776 11 -836 4z"/>
<path d="M5613 2330 c-28 -11 -63 -66 -63 -98 0 -13 5 -33 11 -45 6 -12 144
-156 308 -320 201 -202 306 -301 328 -308 70 -23 150 40 139 108 -2 15 -5 32
-5 38 -1 15 -593 605 -623 621 -30 16 -62 17 -95 4z"/>
</g>
</svg>
